<svg width="24" height="24" viewBox="0 0 24 24" fill="none" xmlns="http://www.w3.org/2000/svg">
<path d="M8 2V5" stroke="#B2B6BD" stroke-width="1.5" stroke-miterlimit="10" stroke-linecap="round" stroke-linejoin="round"/>
<path d="M16 2V5" stroke="#B2B6BD" stroke-width="1.5" stroke-miterlimit="10" stroke-linecap="round" stroke-linejoin="round"/>
<path d="M21 8.5V13.63C20.11 12.92 18.98 12.5 17.75 12.5C16.52 12.5 15.37 12.93 14.47 13.66C13.26 14.61 12.5 16.1 12.5 17.75C12.5 18.73 12.78 19.67 13.26 20.45C13.63 21.06 14.11 21.59 14.68 22H8C4.5 22 3 20 3 17V8.5C3 5.5 4.5 3.5 8 3.5H16C19.5 3.5 21 5.5 21 8.5Z" stroke="#B2B6BD" stroke-width="1.5" stroke-miterlimit="10" stroke-linecap="round" stroke-linejoin="round"/>
<path d="M7 11H13" stroke="#B2B6BD" stroke-width="1.5" stroke-miterlimit="10" stroke-linecap="round" stroke-linejoin="round"/>
<path d="M7 16H9.62" stroke="#B2B6BD" stroke-width="1.5" stroke-miterlimit="10" stroke-linecap="round" stroke-linejoin="round"/>
<path d="M23 17.75C23 18.73 22.72 19.67 22.24 20.45C21.96 20.93 21.61 21.35 21.2 21.69C20.28 22.51 19.08 23 17.75 23C16.6 23 15.54 22.63 14.68 22C14.11 21.59 13.63 21.06 13.26 20.45C12.78 19.67 12.5 18.73 12.5 17.75C12.5 16.1 13.26 14.61 14.47 13.66C15.37 12.93 16.52 12.5 17.75 12.5C18.98 12.5 20.11 12.92 21 13.63C22.22 14.59 23 16.08 23 17.75Z" stroke="#B2B6BD" stroke-width="1.5" stroke-miterlimit="10" stroke-linecap="round" stroke-linejoin="round"/>
<path d="M20.6503 18.1832H18.3253V20.5082C18.3253 20.6315 18.2763 20.7498 18.1891 20.837C18.1019 20.9242 17.9837 20.9731 17.8604 20.9731C17.737 20.9731 17.6188 20.9242 17.5316 20.837C17.4444 20.7498 17.3954 20.6315 17.3954 20.5082V18.1832H15.0705C14.9471 18.1832 14.8289 18.1343 14.7417 18.0471C14.6545 17.9599 14.6055 17.8416 14.6055 17.7183C14.6055 17.5949 14.6545 17.4767 14.7417 17.3895C14.8289 17.3023 14.9471 17.2533 15.0705 17.2533H17.3954V14.9284C17.3954 14.805 17.4444 14.6868 17.5316 14.5996C17.6188 14.5124 17.737 14.4634 17.8604 14.4634C17.9837 14.4634 18.1019 14.5124 18.1891 14.5996C18.2763 14.6868 18.3253 14.805 18.3253 14.9284V17.2533H20.6503C20.7736 17.2533 20.8918 17.3023 20.979 17.3895C21.0662 17.4767 21.1152 17.5949 21.1152 17.7183C21.1152 17.8416 21.0662 17.9599 20.979 18.0471C20.8918 18.1343 20.7736 18.1832 20.6503 18.1832Z" fill="#B2B6BD"/>
</svg>
