<svg width="24" height="25" viewBox="0 0 24 25" fill="none" xmlns="http://www.w3.org/2000/svg">
<path opacity="0.5" d="M8 13.5369H16M8 8.53687H12" stroke="#EBF5F2" stroke-width="1.5" stroke-linecap="round" stroke-linejoin="round"/>
<path d="M6.09881 19.0369C4.7987 18.909 3.82475 18.5185 3.17157 17.8653C2 16.6937 2 14.8081 2 11.0369V10.5369C2 6.76563 2 4.88001 3.17157 3.70844C4.34315 2.53687 6.22876 2.53687 10 2.53687H14C17.7712 2.53687 19.6569 2.53687 20.8284 3.70844C22 4.88001 22 6.76563 22 10.5369V11.0369C22 14.8081 22 16.6937 20.8284 17.8653C19.6569 19.0369 17.7712 19.0369 14 19.0369C13.4395 19.0494 12.9931 19.092 12.5546 19.1919C11.3562 19.4678 10.2465 20.081 9.14987 20.6157C7.58729 21.3777 6.806 21.7586 6.31569 21.402C5.37769 20.7034 6.29454 18.5387 6.5 17.5369" stroke="#EBF5F2" stroke-width="1.5" stroke-linecap="round"/>
</svg>
