<svg width="40" height="40" viewBox="0 0 40 40" fill="none" xmlns="http://www.w3.org/2000/svg">
<rect x="0.454545" y="0.454545" width="39.0909" height="39.0909" rx="19.5455" fill="#B2E8D1"/>
<rect x="0.454545" y="0.454545" width="39.0909" height="39.0909" rx="19.5455" stroke="#80D5B5" stroke-width="0.909091"/>
<path d="M27.5 16.4584H12.5C12.1583 16.4584 11.875 16.175 11.875 15.8334C11.875 15.4917 12.1583 15.2084 12.5 15.2084H27.5C27.8417 15.2084 28.125 15.4917 28.125 15.8334C28.125 16.175 27.8417 16.4584 27.5 16.4584Z" fill="#135242"/>
<path d="M27.5 20.625H12.5C12.1583 20.625 11.875 20.3417 11.875 20C11.875 19.6583 12.1583 19.375 12.5 19.375H27.5C27.8417 19.375 28.125 19.6583 28.125 20C28.125 20.3417 27.8417 20.625 27.5 20.625Z" fill="#135242"/>
<path d="M27.5 24.7916H12.5C12.1583 24.7916 11.875 24.5083 11.875 24.1666C11.875 23.825 12.1583 23.5416 12.5 23.5416H27.5C27.8417 23.5416 28.125 23.825 28.125 24.1666C28.125 24.5083 27.8417 24.7916 27.5 24.7916Z" fill="#135242"/>
</svg>
