<svg width="40" height="40" viewBox="0 0 40 40" fill="none" xmlns="http://www.w3.org/2000/svg">
<rect x="0.454545" y="0.454545" width="39.0909" height="39.0909" rx="19.5455" fill="#B2E8D1"/>
<rect x="0.454545" y="0.454545" width="39.0909" height="39.0909" rx="19.5455" stroke="#80D5B5" stroke-width="0.909091"/>
<path d="M22.5003 28.9584H17.5003C12.9753 28.9584 11.042 27.0251 11.042 22.5001V17.5001C11.042 12.9751 12.9753 11.0417 17.5003 11.0417H19.167C19.5087 11.0417 19.792 11.3251 19.792 11.6667C19.792 12.0084 19.5087 12.2917 19.167 12.2917H17.5003C13.6587 12.2917 12.292 13.6584 12.292 17.5001V22.5001C12.292 26.3417 13.6587 27.7084 17.5003 27.7084H22.5003C26.342 27.7084 27.7087 26.3417 27.7087 22.5001V20.8334C27.7087 20.4917 27.992 20.2084 28.3337 20.2084C28.6753 20.2084 28.9587 20.4917 28.9587 20.8334V22.5001C28.9587 27.0251 27.0253 28.9584 22.5003 28.9584Z" fill="#135242"/>
<path d="M17.0841 24.7417C16.5758 24.7417 16.1091 24.5584 15.7674 24.225C15.3591 23.8167 15.1841 23.225 15.2758 22.6L15.6341 20.0917C15.7008 19.6084 16.0174 18.9834 16.3591 18.6417L22.9258 12.075C24.5841 10.4167 26.2674 10.4167 27.9258 12.075C28.8341 12.9834 29.2424 13.9084 29.1591 14.8334C29.0841 15.5834 28.6841 16.3167 27.9258 17.0667L21.3591 23.6334C21.0174 23.975 20.3924 24.2917 19.9091 24.3584L17.4008 24.7167C17.2924 24.7417 17.1841 24.7417 17.0841 24.7417ZM23.8091 12.9584L17.2424 19.525C17.0841 19.6834 16.9008 20.05 16.8674 20.2667L16.5091 22.775C16.4758 23.0167 16.5258 23.2167 16.6508 23.3417C16.7758 23.4667 16.9758 23.5167 17.2174 23.4834L19.7258 23.125C19.9424 23.0917 20.3174 22.9084 20.4674 22.75L27.0341 16.1834C27.5758 15.6417 27.8591 15.1584 27.9008 14.7084C27.9508 14.1667 27.6674 13.5917 27.0341 12.95C25.7008 11.6167 24.7841 11.9917 23.8091 12.9584Z" fill="#135242"/>
<path d="M26.5413 18.1917C26.483 18.1917 26.4246 18.1834 26.3746 18.1667C24.183 17.5501 22.4413 15.8084 21.8246 13.6167C21.733 13.2834 21.9246 12.9417 22.258 12.8417C22.5913 12.7501 22.933 12.9417 23.0246 13.2751C23.5246 15.0501 24.933 16.4584 26.708 16.9584C27.0413 17.0501 27.233 17.4001 27.1413 17.7334C27.0663 18.0167 26.8163 18.1917 26.5413 18.1917Z" fill="#135242"/>
</svg>
