<svg width="25" height="24" viewBox="0 0 25 24" fill="none" xmlns="http://www.w3.org/2000/svg">
<path d="M20.2404 6.82018L14.4804 2.79018C12.9104 1.69018 10.5004 1.75018 8.99043 2.92018L3.98043 6.83018C2.98043 7.61018 2.19043 9.21018 2.19043 10.4702V17.3702C2.19043 19.9202 4.26043 22.0002 6.81043 22.0002H17.5904C20.1404 22.0002 22.2104 19.9302 22.2104 17.3802V10.6002C22.2104 9.25018 21.3404 7.59018 20.2404 6.82018ZM12.9504 18.0002C12.9504 18.4102 12.6104 18.7502 12.2004 18.7502C11.7904 18.7502 11.4504 18.4102 11.4504 18.0002V15.0002C11.4504 14.5902 11.7904 14.2502 12.2004 14.2502C12.6104 14.2502 12.9504 14.5902 12.9504 15.0002V18.0002Z" fill="#FEFEFE"/>
</svg>
