<svg width="24" height="24" viewBox="0 0 24 24" fill="none" xmlns="http://www.w3.org/2000/svg">
<g clip-path="url(#clip0_337_2278)">
<path d="M20.2404 6.82006L14.4804 2.79006C12.9104 1.69006 10.5004 1.75006 8.99043 2.92006L3.98043 6.83006C2.98043 7.61006 2.19043 9.21006 2.19043 10.4701V17.3701C2.19043 19.9201 4.26043 22.0001 6.81043 22.0001H17.5904C20.1404 22.0001 22.2104 19.9301 22.2104 17.3801V10.6001C22.2104 9.25006 21.3404 7.59006 20.2404 6.82006ZM12.9504 18.0001C12.9504 18.4101 12.6104 18.7501 12.2004 18.7501C11.7904 18.7501 11.4504 18.4101 11.4504 18.0001V15.0001C11.4504 14.5901 11.7904 14.2501 12.2004 14.2501C12.6104 14.2501 12.9504 14.5901 12.9504 15.0001V18.0001Z" fill="#113F4E"/>
</g>
<defs>
<clipPath id="clip0_337_2278">
<rect width="24" height="24" fill="white"/>
</clipPath>
</defs>
</svg>
