<svg width="27" height="24" viewBox="0 0 27 24" fill="none" xmlns="http://www.w3.org/2000/svg">
<path d="M8.5445 16.802C8.72011 16.3335 9.04578 15.9279 9.47661 15.641C9.90744 15.3541 10.4222 15.2 10.95 15.2C11.4778 15.2 11.9926 15.3541 12.4234 15.641C12.8542 15.9279 13.1799 16.3335 13.3555 16.802H22V18.402H13.3555C13.1799 18.8704 12.8542 19.276 12.4234 19.5629C11.9926 19.8498 11.4778 20.0039 10.95 20.0039C10.4222 20.0039 9.90744 19.8498 9.47661 19.5629C9.04578 19.276 8.72011 18.8704 8.5445 18.402H5V16.802H8.5445ZM13.6445 11.202C13.8201 10.7335 14.1458 10.3279 14.5766 10.041C15.0074 9.75408 15.5222 9.6 16.05 9.6C16.5778 9.6 17.0926 9.75408 17.5234 10.041C17.9542 10.3279 18.2799 10.7335 18.4555 11.202H22V12.802H18.4555C18.2799 13.2704 17.9542 13.676 17.5234 13.9629C17.0926 14.2498 16.5778 14.4039 16.05 14.4039C15.5222 14.4039 15.0074 14.2498 14.5766 13.9629C14.1458 13.676 13.8201 13.2704 13.6445 12.802H5V11.202H13.6445ZM8.5445 5.60196C8.72011 5.13353 9.04578 4.72791 9.47661 4.44099C9.90744 4.15408 10.4222 4 10.95 4C11.4778 4 11.9926 4.15408 12.4234 4.44099C12.8542 4.72791 13.1799 5.13353 13.3555 5.60196H22V7.20196H13.3555C13.1799 7.67039 12.8542 8.07601 12.4234 8.36293C11.9926 8.64984 11.4778 8.80392 10.95 8.80392C10.4222 8.80392 9.90744 8.64984 9.47661 8.36293C9.04578 8.07601 8.72011 7.67039 8.5445 7.20196H5V5.60196H8.5445ZM10.95 7.20196C11.1754 7.20196 11.3916 7.11767 11.551 6.96765C11.7104 6.81762 11.8 6.61413 11.8 6.40196C11.8 6.18979 11.7104 5.9863 11.551 5.83628C11.3916 5.68625 11.1754 5.60196 10.95 5.60196C10.7246 5.60196 10.5084 5.68625 10.349 5.83628C10.1896 5.9863 10.1 6.18979 10.1 6.40196C10.1 6.61413 10.1896 6.81762 10.349 6.96765C10.5084 7.11767 10.7246 7.20196 10.95 7.20196ZM16.05 12.802C16.2754 12.802 16.4916 12.7177 16.651 12.5676C16.8104 12.4176 16.9 12.2141 16.9 12.002C16.9 11.7898 16.8104 11.5863 16.651 11.4363C16.4916 11.2862 16.2754 11.202 16.05 11.202C15.8246 11.202 15.6084 11.2862 15.449 11.4363C15.2896 11.5863 15.2 11.7898 15.2 12.002C15.2 12.2141 15.2896 12.4176 15.449 12.5676C15.6084 12.7177 15.8246 12.802 16.05 12.802ZM10.95 18.402C11.1754 18.402 11.3916 18.3177 11.551 18.1676C11.7104 18.0176 11.8 17.8141 11.8 17.602C11.8 17.3898 11.7104 17.1863 11.551 17.0363C11.3916 16.8862 11.1754 16.802 10.95 16.802C10.7246 16.802 10.5084 16.8862 10.349 17.0363C10.1896 17.1863 10.1 17.3898 10.1 17.602C10.1 17.8141 10.1896 18.0176 10.349 18.1676C10.5084 18.3177 10.7246 18.402 10.95 18.402Z" fill="white"/>
</svg>
