<svg width="24" height="25" viewBox="0 0 24 25" fill="none" xmlns="http://www.w3.org/2000/svg">
<path opacity="0.5" d="M3 6.24755C3 4.48094 3 3.59763 3.51256 3.04882C4.02513 2.5 4.85008 2.5 6.5 2.5C8.14992 2.5 8.97487 2.5 9.48744 3.04882C10 3.59763 10 4.48094 10 6.24755V8.04157C10 9.3676 10 10.0306 9.66489 10.3119C9.57217 10.3898 9.46572 10.4468 9.35193 10.4795C8.94067 10.5977 8.44529 10.1999 7.45455 9.40432C7.04241 9.07336 6.83635 8.90788 6.60214 8.8784C6.53428 8.86986 6.46572 8.86986 6.39786 8.8784C6.16365 8.90788 5.95759 9.07336 5.54545 9.40432C4.55471 10.1999 4.05933 10.5977 3.64807 10.4795C3.53428 10.4468 3.42783 10.3898 3.33511 10.3119C3 10.0306 3 9.3676 3 8.04157V6.24755Z" stroke="#EBF5F2" stroke-width="1.5" stroke-linecap="round" stroke-linejoin="round"/>
<path d="M13 2.5H13.2727C16.5339 2.5 18.1645 2.5 19.2969 3.29784C19.6214 3.52643 19.9094 3.79752 20.1523 4.10289C21 5.16867 21 6.70336 21 9.77273V12.3182C21 15.2814 21 16.7629 20.5311 17.9462C19.7772 19.8486 18.1829 21.3491 16.1616 22.0586C14.9044 22.5 13.3302 22.5 10.1818 22.5C8.38275 22.5 7.48322 22.5 6.76478 22.2478C5.60979 21.8424 4.69875 20.9849 4.26796 19.8979C4 19.2217 4 18.3751 4 16.6818V13.5" stroke="#EBF5F2" stroke-width="1.5" stroke-linecap="round" stroke-linejoin="round"/>
<path d="M21 12.5C21 14.3409 19.5076 15.8333 17.6667 15.8333C17.0009 15.8333 16.216 15.7167 15.5686 15.8901C14.9935 16.0442 14.5442 16.4935 14.3901 17.0686C14.2167 17.716 14.3333 18.5009 14.3333 19.1667C14.3333 21.0076 12.8409 22.5 11 22.5" stroke="#EBF5F2" stroke-width="1.5" stroke-linecap="round" stroke-linejoin="round"/>
</svg>
