<svg width="24" height="24" viewBox="0 0 24 24" fill="none" xmlns="http://www.w3.org/2000/svg">
<path d="M15 22.75H9C3.57 22.75 1.25 20.43 1.25 15V9C1.25 3.57 3.57 1.25 9 1.25H15C20.43 1.25 22.75 3.57 22.75 9V15C22.75 20.43 20.43 22.75 15 22.75ZM9 2.75C4.39 2.75 2.75 4.39 2.75 9V15C2.75 19.61 4.39 21.25 9 21.25H15C19.61 21.25 21.25 19.61 21.25 15V9C21.25 4.39 19.61 2.75 15 2.75H9Z" fill="#113F4E"/>
<path d="M8.80999 18.2501C8.73999 18.2501 8.65999 18.2501 8.58999 18.2301L7.39999 18.0701C6.67999 17.9701 6.04999 17.3501 5.93999 16.6101L5.76999 15.4001C5.69999 14.9201 5.89999 14.3101 6.24999 13.9501L8.52999 11.6701C8.18999 10.0501 8.67999 8.37007 9.86999 7.19007C11.78 5.28007 14.9 5.28007 16.81 7.19007C17.74 8.12007 18.25 9.35007 18.25 10.6601C18.25 11.9701 17.74 13.2101 16.81 14.1301C15.62 15.3101 13.94 15.8001 12.33 15.4601L10.04 17.7401C9.74999 18.0501 9.25999 18.2501 8.80999 18.2501ZM13.34 7.25007C12.47 7.25007 11.59 7.58007 10.93 8.25007C10.03 9.15007 9.70999 10.4601 10.08 11.6801C10.16 11.9501 10.09 12.2301 9.88999 12.4301L7.30999 15.0101C7.28999 15.0401 7.24999 15.1501 7.24999 15.1901L7.41999 16.3901C7.42999 16.4501 7.53999 16.5601 7.59999 16.5701L8.79999 16.7401C8.84999 16.7301 8.94999 16.7101 8.97999 16.6801L11.57 14.0901C11.77 13.8901 12.06 13.8301 12.32 13.9101C13.53 14.2901 14.84 13.9701 15.74 13.0701C16.38 12.4301 16.74 11.5701 16.74 10.6601C16.74 9.75007 16.39 8.89007 15.74 8.25007C15.09 7.59007 14.21 7.25007 13.34 7.25007Z" fill="#113F4E"/>
<path d="M10.45 17.0301C10.26 17.0301 10.07 16.9601 9.92003 16.8101L9.06003 15.9501C8.77003 15.6601 8.77003 15.1801 9.06003 14.8901C9.35003 14.6001 9.83003 14.6001 10.12 14.8901L10.98 15.7501C11.27 16.0401 11.27 16.5201 10.98 16.8101C10.84 16.9601 10.65 17.0301 10.45 17.0301Z" fill="#113F4E"/>
<path d="M13.3801 11.8001C13.2401 11.8001 13.1101 11.7801 12.9901 11.7301C12.8701 11.6801 12.7601 11.6001 12.6701 11.5101C12.4801 11.3201 12.3701 11.0701 12.3701 10.8001C12.3701 10.5401 12.4801 10.2801 12.6701 10.1001C12.9001 9.86012 13.2501 9.75012 13.5701 9.82012C13.6301 9.84012 13.7001 9.85012 13.7601 9.88012C13.8201 9.91012 13.8801 9.94012 13.9301 9.97012C13.9801 10.0101 14.0401 10.0501 14.0801 10.1001C14.2701 10.2801 14.3801 10.5401 14.3801 10.8001C14.3801 10.9401 14.3501 11.0601 14.3001 11.1901C14.2501 11.3101 14.1801 11.4201 14.0801 11.5101C13.8901 11.7001 13.6401 11.8001 13.3801 11.8001Z" fill="#113F4E"/>
</svg>
