<svg width="24" height="25" viewBox="0 0 24 25" fill="none" xmlns="http://www.w3.org/2000/svg">
<path d="M15 17.7354C14.9264 19.5873 13.3831 21.1598 11.3156 21.1092C10.8346 21.0974 10.2401 20.9297 9.05112 20.5944C6.18961 19.7872 3.70555 18.4307 3.10956 15.3919C3 14.8333 3 14.2047 3 12.9476L3 11.2731C3 10.016 3 9.38739 3.10956 8.8288C3.70555 5.78998 6.18961 4.43349 9.05112 3.62635C10.2401 3.29097 10.8346 3.12328 11.3156 3.11151C13.3831 3.06093 14.9264 4.6334 15 6.48534" stroke="#EBF5F2" stroke-width="1.5" stroke-linecap="round"/>
<path opacity="0.5" d="M10 12.1104H21M10 12.1104C10 11.4101 11.9943 10.1019 12.5 9.61035M10 12.1104C10 12.8106 11.9943 14.1188 12.5 14.6104" stroke="#EBF5F2" stroke-width="1.5" stroke-linecap="round" stroke-linejoin="round"/>
</svg>
