<svg width="40" height="40" viewBox="0 0 40 40" fill="none" xmlns="http://www.w3.org/2000/svg">
<circle cx="20" cy="20" r="20" fill="#113F4E"/>
<path opacity="0.6" d="M26.1346 13.6071L26.1105 13.5796C25.758 13.1781 25.4619 12.8409 25.227 12.6136C25.1082 12.4986 24.9698 12.3765 24.8195 12.2862C24.684 12.2048 24.4036 12.0668 24.0614 12.1516C23.7377 12.2318 23.545 12.4746 23.4679 12.5765C23.3648 12.7128 23.2684 12.88 23.1775 13.0528C22.9967 13.3965 22.7731 13.8891 22.4943 14.5032L22.4827 14.5287C21.6651 16.3293 20.4633 17.2177 19.7197 17.5172C19.5144 17.6 19.356 17.7692 19.2872 17.9797C19.2183 18.1901 19.246 18.4202 19.3627 18.6084C20.6142 20.625 21.9134 21.5455 23.1822 21.6204C23.8427 21.6595 24.4098 21.4647 24.8659 21.1745C24.9419 21.1262 24.9799 21.102 25.0118 21.061C25.0744 20.9805 25.0906 20.8493 25.0496 20.7559C25.0287 20.7084 24.9912 20.6687 24.9162 20.5895C24.6635 20.3223 24.4078 20.0452 24.1945 19.8027C23.9945 19.5753 23.794 19.3364 23.684 19.1629C23.4622 18.8131 23.5659 18.3497 23.9158 18.1279C24.2656 17.9061 24.729 18.0099 24.9508 18.3597C24.9881 18.4186 25.1104 18.5728 25.3208 18.812C25.518 19.0361 25.7604 19.2991 26.006 19.5588C26.1625 19.7242 26.3492 19.9057 26.5358 20.0803C26.9615 20.4786 27.1744 20.6778 27.5586 20.6849C27.9428 20.692 28.1164 20.5412 28.4637 20.2395C28.4928 20.2143 28.5215 20.1888 28.5498 20.163C29.5101 19.2892 30.2573 17.9413 30.693 16.8882C30.7888 16.6568 30.7627 16.3929 30.6235 16.1847C30.4843 15.9765 30.2504 15.8515 30 15.8515C29.3629 15.8515 27.7218 15.4147 26.1346 13.6071Z" fill="#43B18C"/>
<path opacity="0.6" d="M13.8654 13.6071L13.8895 13.5796C14.242 13.1781 14.5381 12.8409 14.773 12.6136C14.8918 12.4986 15.0302 12.3765 15.1805 12.2862C15.316 12.2048 15.5964 12.0668 15.9386 12.1516C16.2623 12.2318 16.455 12.4746 16.5321 12.5765C16.6352 12.7128 16.7316 12.88 16.8225 13.0528C17.0033 13.3965 17.2269 13.8891 17.5057 14.5032L17.5173 14.5287C18.3349 16.3293 19.5367 17.2177 20.2803 17.5172C20.4856 17.6 20.644 17.7692 20.7128 17.9797C20.7817 18.1901 20.754 18.4202 20.6373 18.6084C19.3858 20.625 18.0866 21.5455 16.8178 21.6204C16.1573 21.6595 15.5902 21.4647 15.1341 21.1745C15.0581 21.1262 15.0201 21.102 14.9882 21.061C14.9256 20.9805 14.9094 20.8493 14.9504 20.7559C14.9713 20.7084 15.0088 20.6687 15.0838 20.5895C15.3365 20.3223 15.5922 20.0452 15.8055 19.8027C16.0055 19.5753 16.206 19.3364 16.316 19.1629C16.5378 18.8131 16.4341 18.3497 16.0842 18.1279C15.7344 17.9061 15.271 18.0099 15.0492 18.3597C15.0119 18.4186 14.8896 18.5728 14.6792 18.812C14.482 19.0361 14.2396 19.2991 13.994 19.5588C13.8375 19.7242 13.6508 19.9057 13.4642 20.0803C13.0385 20.4786 12.8256 20.6778 12.4414 20.6849C12.0572 20.692 11.8836 20.5412 11.5363 20.2395C11.5072 20.2143 11.4785 20.1888 11.4502 20.163C10.4899 19.2892 9.74265 17.9413 9.30696 16.8882C9.21123 16.6568 9.23731 16.3929 9.37648 16.1847C9.51566 15.9765 9.74957 15.8515 10 15.8515C10.6371 15.8515 12.2782 15.4147 13.8654 13.6071Z" fill="#43B18C"/>
<path d="M17.75 11.375C17.75 10.1324 18.7574 9.125 20 9.125C21.2426 9.125 22.25 10.1324 22.25 11.375C22.25 12.6176 21.2426 13.625 20 13.625C18.7574 13.625 17.75 12.6176 17.75 11.375Z" fill="#43B18C"/>
<path opacity="0.6" d="M17.5227 25.2507C17.4092 25.2932 17.3143 25.3353 17.2358 25.375C17.3143 25.4147 17.4092 25.4568 17.5227 25.4993C18.108 25.7188 18.9836 25.875 20 25.875C20.95 25.875 21.8595 26.0654 22.5685 26.4199C23.2177 26.7445 24 27.378 24 28.375C24 29.372 23.2177 30.0055 22.5685 30.3301C21.8595 30.6846 20.95 30.875 20 30.875C19.2578 30.875 18.5487 30.759 17.942 30.5453C17.3553 30.3386 16.7703 30.0066 16.3926 29.5049C16.0604 29.0637 16.1487 28.4368 16.5899 28.1046C17.0311 27.7724 17.6581 27.8607 17.9903 28.3019C18.04 28.368 18.2169 28.5217 18.6064 28.6589C18.9758 28.789 19.4573 28.875 20 28.875C20.7068 28.875 21.2973 28.7296 21.6741 28.5412C21.8074 28.4746 21.8896 28.4175 21.9396 28.375C21.8896 28.3325 21.8074 28.2754 21.6741 28.2088C21.2973 28.0204 20.7068 27.875 20 27.875C18.8073 27.875 17.6829 27.6954 16.8204 27.372C16.3929 27.2117 15.9775 26.9966 15.6509 26.7071C15.3256 26.4187 15 25.9708 15 25.375C15 24.7792 15.3256 24.3313 15.6509 24.0429C15.9775 23.7534 16.3929 23.5383 16.8204 23.378C17.6829 23.0546 18.8073 22.875 20 22.875C21.1927 22.875 22.3171 23.0546 23.1796 23.378C23.6071 23.5383 24.0225 23.7534 24.3491 24.0429C24.6744 24.3313 25 24.7792 25 25.375C25 25.9273 24.5523 26.375 24 26.375C23.5006 26.375 23.0867 26.009 23.012 25.5305C22.9296 25.461 22.7613 25.3572 22.4773 25.2507C21.892 25.0312 21.0164 24.875 20 24.875C18.9836 24.875 18.108 25.0312 17.5227 25.2507Z" fill="#43B18C"/>
<path d="M21 12.875C21 12.3227 20.5523 11.875 20 11.875C19.4477 11.875 19 12.3227 19 12.875V22.9181C19.3248 22.8896 19.6596 22.875 20 22.875C20.3404 22.875 20.6752 22.8896 21 22.9181V12.875Z" fill="#43B18C"/>
</svg>
