<svg width="24" height="25" viewBox="0 0 24 25" fill="none" xmlns="http://www.w3.org/2000/svg">
<path d="M14 2.5V4.5M14 6.5V4.5M10 2.5V4.5M10 6.5V4.5M10 4.5H14" stroke="#EBF5F2" stroke-width="1.5" stroke-linecap="round"/>
<path d="M3 22.5V11.8808C3 8.3766 3 6.62452 4.15327 5.53591C4.88623 4.84404 5.90312 4.59189 7.5 4.5M21 22.5V11.8808C21 8.3766 21 6.62452 19.8467 5.53591C19.1138 4.84404 18.0969 4.59189 16.5 4.5" stroke="#EBF5F2" stroke-width="1.5" stroke-linecap="round" stroke-linejoin="round"/>
<path d="M14.5 22.5H13.75C13.75 22.9142 14.0858 23.25 14.5 23.25V22.5ZM22 23.25C22.4142 23.25 22.75 22.9142 22.75 22.5C22.75 22.0858 22.4142 21.75 22 21.75V23.25ZM2 21.75C1.58579 21.75 1.25 22.0858 1.25 22.5C1.25 22.9142 1.58579 23.25 2 23.25V21.75ZM9.5 22.5V23.25C9.91421 23.25 10.25 22.9142 10.25 22.5H9.5ZM14.299 18.25L13.6495 18.625V18.625L14.299 18.25ZM13.75 17.701L14.125 17.0514V17.0514L13.75 17.701ZM9.70096 18.25L10.3505 18.625V18.625L9.70096 18.25ZM10.25 17.701L10.625 18.3505V18.3505L10.25 17.701ZM14.5 22.5V23.25H22V22.5V21.75H14.5V22.5ZM2 22.5V23.25H9.5V22.5V21.75H2V22.5ZM9.5 22.5H10.25V20H9.5H8.75V22.5H9.5ZM14.5 22.5H15.25V20H14.5H13.75V22.5H14.5ZM14.5 20H15.25C15.25 19.5465 15.2507 19.1562 15.2218 18.8374C15.192 18.5082 15.1259 18.1822 14.9486 17.875L14.299 18.25L13.6495 18.625C13.6731 18.6659 13.7075 18.7476 13.7279 18.9727C13.7493 19.2082 13.75 19.5189 13.75 20H14.5ZM12 17.5V18.25C12.4811 18.25 12.7918 18.2507 13.0273 18.2721C13.2524 18.2925 13.3341 18.3269 13.375 18.3505L13.75 17.701L14.125 17.0514C13.8178 16.8741 13.4918 16.808 13.1627 16.7782C12.8438 16.7493 12.4535 16.75 12 16.75V17.5ZM14.299 18.25L14.9486 17.875C14.7511 17.533 14.467 17.2489 14.125 17.0514L13.75 17.701L13.375 18.3505C13.489 18.4163 13.5837 18.511 13.6495 18.625L14.299 18.25ZM9.5 20H10.25C10.25 19.5189 10.2507 19.2082 10.2721 18.9727C10.2925 18.7476 10.3269 18.6659 10.3505 18.625L9.70096 18.25L9.05144 17.875C8.87407 18.1822 8.80802 18.5082 8.77818 18.8374C8.74928 19.1562 8.75 19.5465 8.75 20H9.5ZM12 17.5V16.75C11.5465 16.75 11.1562 16.7493 10.8373 16.7782C10.5082 16.808 10.1822 16.8741 9.875 17.0514L10.25 17.701L10.625 18.3505C10.6659 18.3269 10.7476 18.2925 10.9727 18.2721C11.2082 18.2507 11.5189 18.25 12 18.25V17.5ZM9.70096 18.25L10.3505 18.625C10.4163 18.511 10.511 18.4163 10.625 18.3505L10.25 17.701L9.875 17.0514C9.53296 17.2489 9.24892 17.533 9.05144 17.875L9.70096 18.25Z" fill="#EBF5F2"/>
<path opacity="0.5" d="M14 10.5H16" stroke="#EBF5F2" stroke-width="1.5" stroke-linecap="round"/>
<path opacity="0.5" d="M14 14.5H16" stroke="#EBF5F2" stroke-width="1.5" stroke-linecap="round"/>
<path opacity="0.5" d="M7 14.5H9" stroke="#EBF5F2" stroke-width="1.5" stroke-linecap="round"/>
<path opacity="0.5" d="M7 10.5H9" stroke="#EBF5F2" stroke-width="1.5" stroke-linecap="round"/>
</svg>
