<svg width="40" height="40" viewBox="0 0 40 40" fill="none" xmlns="http://www.w3.org/2000/svg">
<rect x="0.454545" y="0.454545" width="39.0909" height="39.0909" rx="19.5455" fill="#B2E8D1"/>
<rect x="0.454545" y="0.454545" width="39.0909" height="39.0909" rx="19.5455" stroke="#80D5B5" stroke-width="0.909091"/>
<path d="M27.0003 23.6084C26.767 24.2334 26.2753 24.7084 25.6337 24.925C24.7337 25.225 23.8087 25.45 22.8753 25.6084C22.7837 25.625 22.692 25.6417 22.6003 25.65C22.4503 25.675 22.3003 25.6917 22.1503 25.7084C21.967 25.7334 21.7753 25.75 21.5837 25.7667C21.0587 25.8084 20.542 25.8334 20.017 25.8334C19.4837 25.8334 18.9503 25.8084 18.4253 25.7584C18.2003 25.7417 17.9837 25.7167 17.767 25.6834C17.642 25.6667 17.517 25.65 17.4003 25.6334C17.3087 25.6167 17.217 25.6084 17.1253 25.5917C16.2003 25.4417 15.2837 25.2167 14.392 24.9167C13.7253 24.6917 13.217 24.2167 12.992 23.6084C12.767 23.0084 12.8503 22.3084 13.2087 21.7084L14.1503 20.1417C14.3503 19.8 14.5337 19.1417 14.5337 18.7417V17.1917C14.5337 14.1667 16.992 11.7084 20.017 11.7084C23.0337 11.7084 25.492 14.1667 25.492 17.1917V18.7417C25.492 19.1417 25.6753 19.8 25.8837 20.1417L26.8253 21.7084C27.167 22.2917 27.2337 22.975 27.0003 23.6084Z" fill="#4CCDA2"/>
<path d="M22.3587 26.675C22.0087 27.6416 21.0837 28.3333 20.0004 28.3333C19.3421 28.3333 18.6921 28.0666 18.2337 27.5916C17.9671 27.3416 17.7671 27.0083 17.6504 26.6666C17.7587 26.6833 17.8671 26.6916 17.9837 26.7083C18.1754 26.7333 18.3754 26.7583 18.5754 26.775C19.0504 26.8166 19.5337 26.8416 20.0171 26.8416C20.4921 26.8416 20.9671 26.8166 21.4337 26.775C21.6087 26.7583 21.7837 26.75 21.9504 26.725C22.0837 26.7083 22.2171 26.6916 22.3587 26.675Z" fill="#4CCDA2"/>
<path d="M20.0167 26.9583C17.8667 26.9583 15.7251 26.6167 13.6834 25.9333C12.9251 25.6833 12.3501 25.1417 12.1001 24.4583C11.8501 23.775 11.9334 22.9917 12.3417 22.3083L13.4001 20.5417C13.6334 20.15 13.8417 19.4167 13.8417 18.9583V17.2083C13.8417 13.8 16.6084 11.0333 20.0167 11.0333C23.4251 11.0333 26.1917 13.8 26.1917 17.2083V18.9583C26.1917 19.4083 26.4001 20.15 26.6334 20.5417L27.6917 22.3083C28.0834 22.9583 28.1501 23.7333 27.8917 24.4417C27.6334 25.15 27.0667 25.6917 26.3501 25.9333C24.3084 26.625 22.1667 26.9583 20.0167 26.9583ZM20.0167 12.2917C17.3001 12.2917 15.0917 14.5 15.0917 17.2167V18.9667C15.0917 19.6417 14.8251 20.6167 14.4751 21.1917L13.4167 22.9667C13.2001 23.325 13.1501 23.7083 13.2751 24.0417C13.4001 24.375 13.6834 24.625 14.0834 24.7583C17.9167 26.0333 22.1334 26.0333 25.9667 24.7583C26.3251 24.6417 26.6001 24.375 26.7251 24.025C26.8584 23.675 26.8167 23.2917 26.6251 22.9667L25.5667 21.2C25.2167 20.625 24.9501 19.65 24.9501 18.975V17.225C24.9417 14.5 22.7334 12.2917 20.0167 12.2917Z" fill="#135242"/>
<path d="M20.0001 29.0833C19.1084 29.0833 18.2334 28.7167 17.6001 28.0834C16.9668 27.45 16.6001 26.575 16.6001 25.6833H17.8501C17.8501 26.25 18.0834 26.8 18.4834 27.2C18.8834 27.6 19.4334 27.8333 20.0001 27.8333C21.1834 27.8333 22.1501 26.8667 22.1501 25.6833H23.4001C23.4001 27.5583 21.8751 29.0833 20.0001 29.0833Z" fill="#135242"/>
<rect x="23" y="10" width="4" height="4" rx="2" fill="#EF4444"/>
</svg>
