<svg width="13" height="15" viewBox="0 0 13 15" fill="none" xmlns="http://www.w3.org/2000/svg">
<path d="M8.36816 0.783203C9.14199 0.787684 9.78728 0.805157 10.3213 0.876953C11.054 0.975472 11.6475 1.18267 12.1152 1.65039C12.583 2.11811 12.7902 2.71158 12.8887 3.44434C12.9844 4.15634 12.9844 5.06626 12.9844 6.21484V8.78516L12.9824 9.60254C12.9779 10.3764 12.9605 11.0217 12.8887 11.5557C12.7902 12.2884 12.583 12.8819 12.1152 13.3496C11.6475 13.8173 11.054 14.0245 10.3213 14.123C9.60929 14.2188 8.69937 14.2188 7.55078 14.2188H6.54297L5.72559 14.2168C4.95176 14.2123 4.30647 14.1948 3.77246 14.123C3.03971 14.0245 2.44624 13.8173 1.97852 13.3496C1.58075 12.9518 1.37213 12.463 1.25781 11.875H0.640625C0.295447 11.875 0.015625 11.5952 0.015625 11.25C0.015625 10.9048 0.295447 10.625 0.640625 10.625H1.13379C1.11226 10.0938 1.10937 9.4837 1.10938 8.78516V8.125H0.640625C0.295447 8.125 0.0156249 7.84518 0.015625 7.5C0.0156251 7.15482 0.295447 6.875 0.640625 6.875H1.10938V6.21484L1.11133 5.39746C1.11347 5.02795 1.11927 4.68777 1.13184 4.375H0.640625C0.295447 4.375 0.015625 4.09518 0.015625 3.75C0.015625 3.40482 0.295447 3.125 0.640625 3.125H1.25781C1.37213 2.53701 1.58075 2.04816 1.97852 1.65039C2.44624 1.18267 3.03971 0.975472 3.77246 0.876953C4.48447 0.781226 5.39437 0.78124 6.54297 0.78125H7.55078L8.36816 0.783203ZM5.68652 4.23438C5.43792 4.1831 5.19878 4.26186 5.01562 4.41113C4.47489 4.85187 4.11342 5.57378 4.26953 6.34766C4.35686 6.78035 4.50284 7.20742 4.79492 7.7168C5.37594 8.72991 6.28259 9.63799 7.29688 10.2197C7.80648 10.512 8.23413 10.6578 8.66699 10.7451C9.44086 10.9012 10.1628 10.5397 10.6035 9.99902C10.7529 9.81579 10.8317 9.57586 10.7803 9.32715C10.7295 9.08233 10.5661 8.89777 10.3711 8.78906L9.91211 8.5332C9.75371 8.44488 9.60272 8.36121 9.46777 8.30469C9.31652 8.24135 9.14426 8.19411 8.94531 8.21484C8.74634 8.23559 8.5871 8.31696 8.45215 8.41016C8.33168 8.49337 8.20134 8.60736 8.06445 8.72656L7.48242 9.2334C6.81825 8.79605 6.21825 8.19581 5.78125 7.53223L6.28809 6.9502C6.40728 6.81332 6.52128 6.68296 6.60449 6.5625C6.69767 6.42757 6.77904 6.26827 6.7998 6.06934C6.82055 5.87042 6.77328 5.69811 6.70996 5.54688C6.65339 5.4118 6.56889 5.26014 6.48047 5.10156L6.22461 4.64258C6.11581 4.44763 5.93137 4.28498 5.68652 4.23438Z" fill="#43B18C"/>
</svg>
