<svg width="24" height="25" viewBox="0 0 24 25" fill="none" xmlns="http://www.w3.org/2000/svg">
<path d="M21.3175 7.71513L20.8239 6.85852C20.4506 6.21069 20.264 5.88678 19.9464 5.75761C19.6288 5.62845 19.2696 5.73037 18.5513 5.93421L17.3311 6.27791C16.8725 6.38367 16.3913 6.32367 15.9726 6.10852L15.6357 5.91415C15.2766 5.68417 15.0004 5.34506 14.8475 4.94647L14.5136 3.94909C14.294 3.28907 14.1842 2.95906 13.9228 2.7703C13.6615 2.58154 13.3143 2.58154 12.6199 2.58154H11.5051C10.8108 2.58154 10.4636 2.58154 10.2022 2.7703C9.94085 2.95906 9.83106 3.28907 9.61149 3.94909L9.27753 4.94647C9.12465 5.34506 8.84845 5.68417 8.48937 5.91415L8.15249 6.10852C7.73374 6.32367 7.25259 6.38367 6.79398 6.27791L5.57375 5.93421C4.85541 5.73037 4.49625 5.62845 4.17867 5.75761C3.86109 5.88678 3.67445 6.21069 3.30115 6.85852L2.80757 7.71513C2.45766 8.32237 2.2827 8.626 2.31666 8.94922C2.35061 9.27244 2.58483 9.53291 3.05326 10.0538L4.0843 11.2066C4.3363 11.5256 4.51521 12.0815 4.51521 12.5814C4.51521 13.0815 4.33636 13.6374 4.08433 13.9564L3.05326 15.1092C2.58483 15.6301 2.35062 15.8906 2.31666 16.2138C2.2827 16.537 2.45766 16.8406 2.80757 17.4479L3.30114 18.3045C3.67443 18.9523 3.86109 19.2762 4.17867 19.4054C4.49625 19.5345 4.85542 19.4326 5.57377 19.2288L6.79394 18.885C7.25263 18.7793 7.73387 18.8393 8.15267 19.0545L8.4895 19.2489C8.84851 19.4789 9.12464 19.818 9.2775 20.2165L9.61149 21.214C9.83106 21.874 9.94085 22.204 10.2022 22.3928C10.4636 22.5815 10.8108 22.5815 11.5051 22.5815H12.6199C13.3143 22.5815 13.6615 22.5815 13.9228 22.3928C14.1842 22.204 14.294 21.874 14.5136 21.214L14.8476 20.2165C15.0004 19.818 15.2765 19.4789 15.6356 19.2489L15.9724 19.0545C16.3912 18.8393 16.8724 18.7793 17.3311 18.885L18.5513 19.2288C19.2696 19.4326 19.6288 19.5345 19.9464 19.4054C20.264 19.2762 20.4506 18.9523 20.8239 18.3045L21.3175 17.4479C21.6674 16.8406 21.8423 16.537 21.8084 16.2138C21.7744 15.8906 21.5402 15.6301 21.0718 15.1092L20.0407 13.9564C19.7887 13.6374 19.6098 13.0815 19.6098 12.5814C19.6098 12.0815 19.7888 11.5256 20.0407 11.2066L21.0718 10.0538C21.5402 9.53291 21.7744 9.27244 21.8084 8.94922C21.8423 8.626 21.6674 8.32237 21.3175 7.71513Z" stroke="#EBF5F2" stroke-width="1.5" stroke-linecap="round"/>
<path opacity="0.5" d="M15.5195 12.5737C15.5195 14.5067 13.9525 16.0737 12.0195 16.0737C10.0865 16.0737 8.51953 14.5067 8.51953 12.5737C8.51953 10.6407 10.0865 9.07373 12.0195 9.07373C13.9525 9.07373 15.5195 10.6407 15.5195 12.5737Z" stroke="#EBF5F2" stroke-width="1.5"/>
</svg>
