<svg width="24" height="25" viewBox="0 0 24 25" fill="none" xmlns="http://www.w3.org/2000/svg">
<path d="M22 11.6036C22 16.8867 17.5222 21.1703 12 21.1703C11.3507 21.1711 10.7032 21.1111 10.0654 20.9913C9.60633 20.9051 9.37678 20.862 9.21653 20.8865C9.05627 20.9109 8.82918 21.0317 8.37499 21.2733C7.09014 21.9565 5.59195 22.1978 4.15111 21.9298C4.69874 21.2563 5.07275 20.4481 5.23778 19.5816C5.33778 19.0517 5.09 18.5368 4.71889 18.16C3.03333 16.4484 2 14.142 2 11.6036C2 6.32044 6.47778 2.03687 12 2.03687C17.5222 2.03687 22 6.32044 22 11.6036Z" stroke="#EBF5F2" stroke-width="1.5" stroke-linejoin="round"/>
<path opacity="0.5" d="M10 9.88302C10 8.86342 10.8954 8.03687 12 8.03687C13.1046 8.03687 14 8.86342 14 9.88302C14 10.2505 13.8837 10.593 13.6831 10.8807C13.0854 11.7381 12 12.5557 12 13.5753V14.0369" stroke="#EBF5F2" stroke-width="1.5" stroke-linecap="round"/>
<path opacity="0.5" d="M12 16.5369H12.009" stroke="#EBF5F2" stroke-width="1.5" stroke-linecap="round" stroke-linejoin="round"/>
</svg>
